# File produced by Open Asset Import Library (http://www.assimp.sf.net)
# (assimp v3.1.118612264)

mtllib Die.mtl

# vertex positions
v 0.000000 -1.000000 0.000000
v 0.723600 -0.447215 0.525720
v -0.276385 -0.447215 0.850640
v 0.723600 -0.447215 -0.525720
v -0.894425 -0.447215 0.000000
v -0.276385 -0.447215 -0.850640
v 0.894425 0.447215 0.000000
v 0.276385 0.447215 0.850640
v -0.723600 0.447215 0.525720
v -0.723600 0.447215 -0.525720
v 0.276385 0.447215 -0.850640
v 0.000000 1.000000 0.000000

# UV coordinates
vt 0.000069 0.818137
vt 0.157508 0.727241
vt 0.157508 0.909034
vt 0.000069 0.636344
vt 0.157508 0.545448
vt 0.000069 0.090965
vt 0.157508 0.000069
vt 0.157508 0.181862
vt 0.000069 0.272758
vt 0.157508 0.363655
vt 0.000069 0.454551
vt 0.314946 0.636344
vt 0.314946 0.818137
vt 0.314946 0.090965
vt 0.314946 0.272758
vt 0.314946 0.454551
vt 0.314946 0.999931
vt 0.472386 0.727241
vt 0.472386 0.909034
vt 0.472386 0.181862
vt 0.472386 0.363655
vt 0.472386 0.545448

# vertex normals
vn 0.187600 -0.794700 0.577400
vn 0.607100 -0.794700 -0.000000
vn -0.491100 -0.794700 0.356800
vn -0.491100 -0.794700 -0.356800
vn 0.187600 -0.794700 -0.577400
vn 0.982200 -0.187600 -0.000000
vn 0.303500 -0.187600 0.934200
vn -0.794600 -0.187600 0.577400
vn -0.794600 -0.187600 -0.577400
vn 0.303500 -0.187600 -0.934200
vn 0.794600 0.187600 0.577400
vn -0.303500 0.187600 0.934200
vn -0.982200 0.187600 -0.000000
vn -0.303500 0.187600 -0.934200
vn 0.794600 0.187600 -0.577400
vn 0.491100 0.794700 0.356800
vn -0.187600 0.794700 0.577400
vn -0.607100 0.794700 -0.000000
vn -0.187600 0.794700 -0.577400
vn 0.491100 0.794700 -0.356800

# Mesh
g Icosphere
usemtl DefaultMaterial
f 1/1/1 2/2/1 3/3/1
f 2/2/2 1/4/2 4/5/2
f 1/6/3 3/7/3 5/8/3
f 1/9/4 5/8/4 6/10/4
f 1/11/5 6/10/5 4/5/5
f 2/2/6 4/5/6 7/12/6
f 3/3/7 2/2/7 8/13/7
f 5/8/8 3/7/8 9/14/8
f 6/10/9 5/8/9 10/15/9
f 4/5/10 6/10/10 11/16/10
f 2/2/11 7/12/11 8/13/11
f 3/3/12 8/13/12 9/17/12
f 5/8/13 9/14/13 10/15/13
f 6/10/14 10/15/14 11/16/14
f 4/5/15 11/16/15 7/12/15
f 8/13/16 7/12/16 12/18/16
f 9/17/17 8/13/17 12/19/17
f 10/15/18 9/14/18 12/20/18
f 11/16/19 10/15/19 12/21/19
f 7/12/20 11/16/20 12/22/20
